<?xml version="1.0" standalone="no"?>
<!DOCTYPE svg PUBLIC "-//W3C//DTD SVG 20010904//EN"
 "http://www.w3.org/TR/2001/REC-SVG-20010904/DTD/svg10.dtd">
<svg version="1.0" xmlns="http://www.w3.org/2000/svg"
 width="737.000000pt" height="737.000000pt" viewBox="0 0 737.000000 737.000000"
 preserveAspectRatio="xMidYMid meet">
<metadata>
Created by potrace 1.11, written by Peter Selinger 2001-2013
</metadata>
<g transform="translate(0.000000,737.000000) scale(0.100000,-0.100000)"
fill="#000000" stroke="none">
<path d="M3817 7351 c-49 -32 -80 -86 -134 -236 -45 -123 -105 -197 -177 -216
-94 -25 -173 40 -271 221 -62 115 -119 184 -161 194 -75 19 -127 -71 -148
-259 -12 -100 -27 -153 -60 -209 -72 -122 -195 -111 -327 30 -188 202 -239
236 -294 200 -47 -31 -55 -66 -49 -221 8 -204 6 -234 -21 -292 -32 -71 -71
-95 -145 -91 -65 5 -131 34 -214 97 -108 82 -165 112 -221 118 -48 5 -53 3
-74 -23 -21 -26 -23 -37 -18 -99 3 -41 19 -111 38 -170 28 -83 34 -115 34
-187 0 -72 -4 -91 -21 -115 -59 -80 -166 -83 -339 -8 -126 54 -194 71 -248 61
-87 -16 -80 -125 18 -282 121 -194 130 -312 28 -376 -32 -19 -53 -23 -131 -25
-51 -1 -103 2 -115 6 -75 29 -230 34 -278 10 -84 -42 -55 -128 95 -284 129
-135 165 -224 123 -307 -39 -76 -117 -105 -314 -113 -120 -5 -193 -24 -231
-59 -19 -17 -23 -28 -19 -59 7 -50 53 -101 152 -167 166 -111 223 -176 227
-256 3 -98 -71 -159 -266 -213 -130 -37 -183 -60 -218 -96 -72 -72 -3 -151
192 -220 101 -37 147 -62 197 -109 120 -113 63 -230 -172 -355 -179 -95 -228
-160 -170 -229 32 -38 104 -62 230 -77 32 -3 62 -8 65 -10 3 -2 22 -6 44 -9
42 -7 128 -47 152 -71 25 -25 44 -83 39 -121 -9 -72 -50 -125 -195 -253 -188
-167 -168 -276 49 -271 292 7 304 6 355 -20 64 -33 89 -77 82 -145 -5 -54 -49
-161 -77 -185 -19 -17 -91 -123 -112 -165 -85 -170 17 -221 269 -134 180 61
299 47 344 -41 37 -73 25 -146 -55 -330 -44 -101 -57 -196 -32 -233 22 -34 59
-41 124 -22 59 17 79 27 188 93 166 99 286 96 339 -10 29 -57 32 -154 9 -252
-19 -80 -25 -208 -11 -246 12 -35 43 -60 73 -60 38 0 119 49 185 111 137 129
204 171 276 171 114 0 168 -98 178 -322 3 -58 7 -112 9 -120 2 -8 7 -31 11
-51 11 -51 49 -89 90 -89 56 0 100 42 200 190 90 133 159 190 232 190 103 0
168 -87 220 -295 21 -86 66 -178 96 -199 79 -56 145 17 232 256 32 86 86 156
141 183 68 33 119 23 187 -39 27 -24 98 -128 98 -142 0 -14 78 -139 107 -170
68 -75 129 -71 171 11 17 33 43 142 48 203 10 119 52 222 107 259 44 30 79 34
137 17 51 -15 87 -46 248 -216 92 -97 159 -122 202 -76 35 37 43 92 35 228
-11 190 -8 228 29 294 60 108 190 95 366 -38 263 -199 361 -126 257 193 -60
185 -46 296 45 340 24 11 56 21 71 21 49 0 132 -23 212 -58 167 -74 251 -85
291 -38 37 42 12 149 -58 253 -75 111 -110 218 -95 290 9 49 57 97 113 112 45
12 158 7 244 -11 126 -28 240 -18 264 21 35 57 -2 132 -137 273 -137 144 -166
257 -86 336 50 48 119 65 314 76 178 10 242 50 217 135 -15 47 -70 100 -185
175 -94 61 -171 142 -182 190 -28 121 49 196 263 252 159 43 242 94 242 151 0
57 -76 112 -237 172 -194 71 -270 162 -227 271 22 54 104 126 200 175 153 77
224 145 209 203 -9 35 -21 49 -59 66 -53 24 -97 35 -211 51 -108 16 -199 47
-238 83 -76 69 -49 191 66 297 135 125 180 172 198 207 27 52 21 85 -20 117
-37 28 -61 30 -326 21 -272 -9 -332 151 -147 392 107 138 139 236 93 282 -35
35 -139 28 -281 -18 -176 -57 -278 -50 -330 23 -46 65 -36 166 31 314 72 161
79 273 17 293 -59 19 -118 0 -262 -85 -187 -110 -304 -112 -360 -6 -26 50 -27
181 -3 295 17 82 17 193 -1 226 -6 12 -25 27 -42 34 -27 11 -36 10 -93 -18
-37 -19 -90 -59 -132 -100 -122 -120 -209 -168 -284 -156 -101 16 -147 112
-155 324 -6 144 -18 195 -58 238 -56 59 -146 -3 -252 -173 -55 -87 -142 -169
-195 -182 -116 -30 -199 59 -250 267 -28 112 -74 206 -111 225 -37 19 -49 19
-83 -4z m-47 -1026 c103 -22 204 -104 252 -204 30 -60 33 -75 33 -161 0 -82
-4 -103 -26 -151 -140 -298 -549 -298 -688 1 -22 47 -26 69 -26 150 0 82 4
103 27 152 77 164 252 252 428 213z m-1580 -671 c198 -59 311 -270 249 -469
-32 -104 -92 -174 -195 -225 -241 -122 -534 59 -535 329 0 81 4 98 34 165 77
168 267 253 447 200z m3265 -24 c187 -93 261 -322 165 -511 -88 -172 -318
-247 -493 -161 -233 115 -285 418 -105 602 76 78 164 111 280 106 74 -3 97 -8
153 -36z m-1606 -1345 c201 -59 352 -205 422 -410 33 -97 33 -269 0 -365 -62
-181 -200 -326 -370 -391 -76 -29 -110 -34 -226 -34 -75 0 -117 5 -170 22
-189 60 -334 202 -402 395 -23 63 -26 89 -26 193 0 106 3 129 28 195 77 209
249 361 455 403 81 17 214 13 289 -8z m-2269 -255 c178 -90 255 -279 190 -464
-58 -164 -232 -269 -404 -243 -220 33 -359 238 -312 463 9 41 49 115 88 159
76 86 172 125 299 120 62 -2 87 -9 139 -35z m4515 10 c70 -27 157 -109 192
-180 93 -187 14 -414 -175 -505 -201 -96 -444 7 -517 220 -9 28 -17 80 -17
120 0 265 265 441 517 345z m-3922 -1585 c80 -18 168 -78 216 -150 131 -192
63 -447 -146 -554 -109 -55 -263 -44 -368 27 -196 132 -224 409 -57 577 94 94
218 129 355 100z m3236 -10 c110 -36 196 -124 236 -240 14 -43 21 -141 12
-185 -40 -205 -258 -345 -455 -294 -118 31 -202 100 -254 210 -29 62 -33 78
-33 156 1 50 6 98 14 115 7 15 21 44 30 63 38 81 160 172 255 189 59 11 138 5
195 -14z m-1568 -676 c236 -110 292 -426 108 -607 -203 -200 -545 -112 -624
162 -51 175 37 366 205 443 67 31 68 31 165 29 73 -1 100 -6 146 -27z"/>
</g>
</svg>
